<svg width="48" height="45" viewBox="0 0 48 45" fill="none" xmlns="http://www.w3.org/2000/svg">
<g clip-path="url(#clip0_1_68)">
<path d="M42.0275 3.41732H40.3734C39.8564 1.40066 38.0579 0 35.9666 0H21.8601C21.2903 0 20.9118 0.591653 21.1392 1.11449C24.0488 7.80897 29.8478 7.1997 29.8478 7.1997C29.8478 6.08773 29.2461 5.12262 27.9931 4.88512C25.927 4.49404 24.9241 3.25283 24.4298 2.26423H35.9666C37.2288 2.26423 38.2518 3.28724 38.2518 4.54943V5.55986C38.2518 5.62615 38.3064 5.6807 38.3727 5.6807H42.0266C43.6942 5.6807 45.0462 7.03269 45.0462 8.70023V9.00319C43.5314 8.29237 41.7522 8.18495 39.8841 8.69519L39.8161 8.71618C38.2719 9.24908 37.1398 10.3577 36.6262 11.8389C36.1143 13.316 36.3073 14.9717 37.1407 16.2667C37.7902 17.3476 38.5539 18.0727 39.2941 18.7759C40.2408 19.6764 41.2193 20.6071 42.2129 22.4811C42.7165 23.4303 42.9917 25.2581 42.4068 27.028C42.2314 27.5601 41.8873 28.3196 41.2361 29.017C40.3683 25.0533 36.8436 22.2 32.7675 22.2C32.7012 22.2 32.6466 22.2545 32.6466 22.3217C32.6466 23.4328 33.4137 24.4172 34.5072 24.7042C37.3647 25.4545 39.1775 28.2919 39.1775 31.246V37.3211C39.1775 39.1875 41.2873 40.9457 42.8038 42.0292L42.8482 42.0988C42.9615 42.2784 42.9045 42.4395 42.8608 42.5201C42.8172 42.5998 42.7106 42.7341 42.4983 42.7341H34.6272C34.5601 42.7341 34.5055 42.7886 34.5055 42.8549C34.5055 44.0374 35.4673 44.9992 36.6489 44.9992H42.4236C43.2309 44.9992 43.982 44.6786 44.4839 44.118C45.2853 43.2267 45.3995 41.8991 44.7633 40.8903C43.9401 39.733 41.5693 38.9198 41.4425 37.3211V31.7629C42.9154 30.8406 43.9913 29.45 44.5577 27.7389C45.2484 25.65 45.1108 23.1105 44.2145 21.4203C43.0471 19.2191 41.8814 18.1104 40.8526 17.1327C40.1669 16.4815 39.5744 15.9184 39.0642 15.0708C38.5925 14.3365 38.4809 13.4058 38.7671 12.5808C39.044 11.7802 39.6693 11.1717 40.5169 10.8705C41.6557 10.5658 43.7982 10.3048 45.3474 11.9824L45.872 12.5506C46.1086 12.8074 46.4586 12.8871 46.7833 12.7604C47.109 12.6337 47.3112 12.3366 47.3112 11.9875V8.70191C47.3112 5.78393 44.9454 3.41816 42.0275 3.41816V3.41732Z" fill="#B3A4FF"/>
<path d="M15.2512 37.5384V37.5351C15.263 32.6458 16.8608 28.0326 19.8711 24.194C19.8753 24.1889 19.8787 24.1839 19.882 24.178H21.8693C22.6683 24.1797 23.5528 24.3626 23.7156 24.5112C23.7634 24.5557 23.8381 24.5523 23.8843 24.5045C23.8877 24.5011 23.8902 24.4978 23.8927 24.4944C24.2846 24.0941 24.4172 23.5159 24.2376 22.9821C24.0589 22.4492 23.6032 22.0707 23.0501 21.9943C22.5357 21.923 22.0909 21.9129 21.8718 21.9129H13.9789C11.8179 21.9129 9.82395 20.8295 8.64484 19.0151C8.62134 18.979 8.58777 18.9614 8.53742 18.9597C8.49378 18.9622 8.45517 18.9866 8.43587 19.0252C7.91388 20.0348 8.27474 21.5546 9.23901 22.4123C10.8126 23.8113 12.3441 23.9892 13.9789 24.178H16.949C14.2886 28.1324 12.8804 32.7524 12.8728 37.5527V37.6165C12.8393 40.0452 10.8361 42.0216 8.40566 42.0216C5.97527 42.0216 3.93847 40.0175 3.93847 37.5544C3.93847 35.0913 5.91485 33.1191 8.3444 33.0872C8.36118 33.0872 8.37713 33.083 8.39139 33.0755L8.40986 33.0738C10.335 32.9487 11.8003 31.3399 11.7458 29.4114C11.6937 27.5517 10.1378 25.9958 8.27894 25.9429C7.16949 25.9144 6.29669 26.2752 5.92408 26.9365C5.70084 27.3327 5.56909 27.9738 5.64881 28.281C5.82085 28.949 6.3739 29.539 6.85729 29.5692C6.88918 29.5809 6.92191 29.5599 6.94541 29.539C6.96975 29.5171 6.98402 29.4869 6.98569 29.455C7.00332 29.1009 7.18459 28.7644 7.47077 28.5529C7.77876 28.3255 8.17571 28.2625 8.55504 28.3808C8.9092 28.4916 9.19789 28.7803 9.30783 29.1336C9.42616 29.5138 9.36321 29.9091 9.13579 30.2179C8.92514 30.5049 8.58693 30.6862 8.23278 30.7038C8.21684 30.7046 8.20173 30.7088 8.1883 30.7164H8.1732C4.46383 30.8423 1.55844 33.8459 1.55844 37.5536C1.55844 41.2612 4.63 44.4008 8.40566 44.4008C12.1813 44.4008 15.2319 41.3452 15.2512 37.593L15.2529 37.5376L15.2512 37.5384Z" fill="#B3A4FF"/>
<path d="M5.06891 12.8628C5.06891 12.8628 5.0622 12.8653 5.058 12.8678C4.77099 13.0071 4.58048 13.2774 4.50915 13.6475C4.33627 14.5421 4.88092 15.9545 5.48349 16.6183C7.23411 18.5485 9.00235 19.2996 11.7894 19.2996H21.0184C21.9658 19.2996 23.0048 19.5254 23.1903 19.7108C23.2138 19.7343 23.2448 19.7461 23.2759 19.7461C23.3069 19.7461 23.338 19.7343 23.3615 19.7108C23.7643 19.3097 23.9053 18.7214 23.7316 18.1776C23.557 17.6329 23.1181 17.2528 22.5575 17.1588C21.9021 17.0505 21.3112 17.0346 21.0184 17.0346H11.7894C8.97969 17.0346 6.47041 15.4694 5.23172 12.9475C6.53335 13.6122 8.00703 13.9865 9.56547 13.9865H18.7936C19.7444 13.9882 20.7825 14.2139 20.9663 14.3977C21.0133 14.4447 21.0905 14.4447 21.1375 14.3977C21.5395 13.9957 21.6813 13.4083 21.5068 12.8645C21.3322 12.3206 20.8933 11.9396 20.3335 11.8465C19.6781 11.7382 19.089 11.7223 18.7944 11.7223H9.56547C6.59714 11.7223 3.07743 9.73164 1.87566 5.91989C3.58852 7.55302 5.35928 8.36958 7.00164 8.28566H19.5992C25.4637 8.28566 30.2347 13.0566 30.2347 18.9211C30.2347 18.9874 30.2893 19.042 30.3556 19.042C30.9405 19.042 31.4919 18.7852 31.8687 18.337C32.2505 17.8839 32.41 17.2872 32.3076 16.6997C31.23 10.5121 25.885 6.0206 19.5992 6.0206H7.27691C5.16878 6.0206 3.18066 5.09577 1.82363 3.48362L1.25716 2.8114C1.06246 2.58062 0.751944 2.4967 0.467447 2.60076C0.182951 2.70482 -0.000839233 2.9675 -0.000839233 3.26962C-0.000839233 6.92024 1.55592 11.1508 5.06807 12.8619L5.06891 12.8628Z" fill="#B3A4FF"/>
<path d="M37.3639 40.3514C37.6627 40.3187 37.8767 40.1979 38.0017 39.9914C38.0353 39.9352 38.0185 39.8622 37.9631 39.8261L36.9879 39.2042C34.0825 37.1456 32.3353 33.9247 32.1943 30.3672C32.1481 29.22 31.2913 28.2876 30.1558 28.15C30.0836 28.1424 30.0291 28.1886 30.0207 28.2557C29.8327 29.8024 29.8806 31.2752 30.1625 32.6339H29.2352C28.0594 32.6339 26.9592 33.0955 26.1368 33.9347C25.3135 34.7723 24.8721 35.8817 24.8939 37.0575C24.9375 39.4065 26.9324 41.3182 29.3418 41.3182C30.0836 41.3182 30.687 41.9216 30.687 42.6643V42.7348H14.772C14.7057 42.7348 14.6512 42.7894 14.6512 42.8557C14.6512 44.0382 15.6129 44.9999 16.7945 44.9999H31.8192C32.4444 44.9999 32.9513 44.4922 32.9513 43.8678V42.6643C32.9513 40.6737 31.3316 39.054 29.3409 39.054C28.1576 39.054 27.1783 38.1401 27.1573 37.0155C27.1464 36.4524 27.3587 35.922 27.7523 35.5209C28.1459 35.1197 28.6729 34.899 29.2343 34.899H30.8859C31.4616 36.1973 32.2841 37.3965 33.3977 38.5631C34.0381 39.2336 36.2041 40.479 37.3605 40.3506L37.3639 40.3514Z" fill="#B3A4FF"/>
</g>
<defs>
<clipPath id="clip0_1_68">
<rect width="47.3104" height="45" fill="white"/>
</clipPath>
</defs>
</svg>
